# xmcd
#
# Track frame offsets:
#	150
#	16417
#	30037
#	48161
#	67826
#	82189
#	96822
#	115403
#	133427
#	147400
#	159822
#	181312
#	196217
#	213834
#	230863
#
# Disc length: 3285 seconds
#
# Revision: 0
# Processed by: cddbd v1.5.2PL0 Copyright (c) Steve Scherf et al.
# Submitted via: EasyCDDAExtractor 16.0.8.1
#
DISCID=c80cd30f
DTITLE=Sula Mazurega - Vol.05 - Intuição
DYEAR=2003
DGENRE=Sertaneja
TTITLE0=Quem Sabe Sou Eu
TTITLE1=Comendo Poeira (Part. Gino and Geno)
TTITLE2=Dois Estranhos
TTITLE3=Antes Até Da Paixão (Intuição)
TTITLE4=Quero Ser Seu Dono (Part. Matogrosso and Mathias)
TTITLE5=Pássaro Livre (No More Bolero)
TTITLE6=Toma Conta De Mim
TTITLE7=Folia
TTITLE8=Não Beba Mais Não (Part. Monalisa)
TTITLE9=Outra Noite Sem Meu Bem
TTITLE10=Santa Maria (Mães Das Mães) (Part. Lucas and Luan)
TTITLE11=Pra Conviver Com Essa Cabeça
TTITLE12=Vontade Doida
TTITLE13=Livre De Você
TTITLE14=Todos Os Meus Rumos
EXTD=
EXTT0=
EXTT1=
EXTT2=
EXTT3=
EXTT4=
EXTT5=
EXTT6=
EXTT7=
EXTT8=
EXTT9=
EXTT10=
EXTT11=
EXTT12=
EXTT13=
EXTT14=
PLAYORDER=
